# xmcd CD database file
#
# Track frame offsets:
#	150
#	12025
#	24360
#	36420
#	47935
#	60700
#	71645
#	83592
#	96290
#	113235
#	124597
#	132955
#	141542
#	149855
#	166035
#	175702
#	192025
#	204777
#	215297
#	233512
#
# Disc length: 3290 seconds
#
# Revision: 3
# Processed by: cddbd v1.5.2PL0 Copyright (c) Steve Scherf et al.
# Submitted via: CDex 1.70beta2
#
DISCID=150cd814
DTITLE=Johnny Cash - Highwayman - Live
DYEAR=1996
DGENRE=Country
TTITLE0=The Highwayman
TTITLE1=Folsom Prison Blues
TTITLE2=Sixteen Tons
TTITLE3=These Hands
TTITLE4=Peace In The Valley
TTITLE5=Rock Island Line
TTITLE6=I Still Miss Someone
TTITLE7=Ring Of Fire
TTITLE8=Sunday Morning Coming Down
TTITLE9=Big River
TTITLE10=The Wall
TTITLE11=I Got Stripes
TTITLE12=Get Rhythm
TTITLE13=A Boy Named Sue
TTITLE14=Help Me
TTITLE15=The City Of New Orleans
TTITLE16=Long Black Veil
TTITLE17=If I Were A Carpenter (Duet)
TTITLE18=Orange Blossom Special
TTITLE19=I Walk The Line
EXTD=YEAR: 1996
EXTT0=
EXTT1=
EXTT2=
EXTT3=
EXTT4=
EXTT5=
EXTT6=
EXTT7=
EXTT8=
EXTT9=
EXTT10=
EXTT11=
EXTT12=
EXTT13=
EXTT14=
EXTT15=
EXTT16=
EXTT17=
EXTT18=
EXTT19=
PLAYORDER=
